<?xml version="1.0" encoding="UTF-8" standalone="no"?>
<!DOCTYPE svg PUBLIC "-//W3C//DTD SVG 1.1//EN"
 "http://www.w3.org/Graphics/SVG/1.1/DTD/svg11.dtd">
<!-- Generated by graphviz version 2.43.0 (0)
 -->
<!-- Title: OmegaL4Scanner::Exceptions::OmegaBaseException Pages: 1 -->
<svg width="1816pt" height="379pt"
 viewBox="0.00 0.00 1816.00 379.00" xmlns="http://www.w3.org/2000/svg" xmlns:xlink="http://www.w3.org/1999/xlink">
<g id="graph0" class="graph" transform="scale(1 1) rotate(0) translate(4 375)">
<title>OmegaL4Scanner::Exceptions::OmegaBaseException</title>
<!-- Node1 -->
<g id="Node000001" class="node">
<title>Node1</title>
<g id="a_Node000001"><a xlink:title="Exception class for handling errors in the OMEGA L4 Scanner project.">
<polygon fill="#999999" stroke="transparent" points="1035.5,-286 843.5,-286 843.5,-107 1035.5,-107 1035.5,-286"/>
<text text-anchor="start" x="867" y="-273.5" font-family="Helvetica,sans-Serif" font-size="10.00">OmegaL4Scanner::Exceptions</text>
<text text-anchor="start" x="882.5" y="-262.5" font-family="Helvetica,sans-Serif" font-size="10.00">::OmegaBaseException</text>
<text text-anchor="start" x="850" y="-247.5" font-family="Helvetica,sans-Serif" font-size="10.00">&#45;</text>
<text text-anchor="start" x="860.5" y="-247.5" font-family="Helvetica,sans-Serif" font-size="10.00">const Enums::ExitCodes mCode</text>
<text text-anchor="start" x="850" y="-232.5" font-family="Helvetica,sans-Serif" font-size="10.00">&#45;</text>
<text text-anchor="start" x="860.5" y="-232.5" font-family="Helvetica,sans-Serif" font-size="10.00">const std::string mMessage</text>
<text text-anchor="start" x="850" y="-217.5" font-family="Helvetica,sans-Serif" font-size="10.00">&#45;</text>
<text text-anchor="start" x="860.5" y="-217.5" font-family="Helvetica,sans-Serif" font-size="10.00">std::string mDetail</text>
<text text-anchor="start" x="847.5" y="-202.5" font-family="Helvetica,sans-Serif" font-size="10.00">+</text>
<text text-anchor="start" x="860.5" y="-202.5" font-family="Helvetica,sans-Serif" font-size="10.00">OmegaBaseException(Enums::</text>
<text text-anchor="start" x="860.5" y="-191.5" font-family="Helvetica,sans-Serif" font-size="10.00">ExitCodes code, std::string</text>
<text text-anchor="start" x="860.5" y="-180.5" font-family="Helvetica,sans-Serif" font-size="10.00"> message, std::string detail=&quot;&quot;)</text>
<text text-anchor="start" x="847.5" y="-165.5" font-family="Helvetica,sans-Serif" font-size="10.00">+</text>
<text text-anchor="start" x="860.5" y="-165.5" font-family="Helvetica,sans-Serif" font-size="10.00">const char * what() const noexcept</text>
<text text-anchor="start" x="860.5" y="-154.5" font-family="Helvetica,sans-Serif" font-size="10.00"> override</text>
<text text-anchor="start" x="847.5" y="-139.5" font-family="Helvetica,sans-Serif" font-size="10.00">+</text>
<text text-anchor="start" x="860.5" y="-139.5" font-family="Helvetica,sans-Serif" font-size="10.00">int code() const noexcept</text>
<text text-anchor="start" x="847.5" y="-124.5" font-family="Helvetica,sans-Serif" font-size="10.00">+</text>
<text text-anchor="start" x="860.5" y="-124.5" font-family="Helvetica,sans-Serif" font-size="10.00">std::string detail() const</text>
<text text-anchor="start" x="860.5" y="-113.5" font-family="Helvetica,sans-Serif" font-size="10.00"> noexcept</text>
<polygon fill="#666666" stroke="#666666" points="843.5,-257.5 843.5,-257.5 1035.5,-257.5 1035.5,-257.5 843.5,-257.5"/>
<polygon fill="#666666" stroke="#666666" points="843.5,-212.5 843.5,-212.5 858.5,-212.5 858.5,-212.5 843.5,-212.5"/>
<polygon fill="#666666" stroke="#666666" points="858.5,-212.5 858.5,-212.5 1035.5,-212.5 1035.5,-212.5 858.5,-212.5"/>
<polygon fill="none" stroke="#666666" points="843.5,-107 843.5,-286 1035.5,-286 1035.5,-107 843.5,-107"/>
</a>
</g>
</g>
<!-- Node3 -->
<g id="Node000003" class="node">
<title>Node3</title>
<g id="a_Node000003"><a xlink:href="../../d8/df3/classOmegaL4Scanner_1_1Exceptions_1_1HelpRequestedException.html" target="_top" xlink:title="Exception class for user requesting help.">
<polygon fill="white" stroke="transparent" points="163,-71 0,-71 0,0 163,0 163,-71"/>
<text text-anchor="start" x="9.5" y="-58.5" font-family="Helvetica,sans-Serif" font-size="10.00">OmegaL4Scanner::Exceptions</text>
<text text-anchor="start" x="17.5" y="-47.5" font-family="Helvetica,sans-Serif" font-size="10.00">::HelpRequestedException</text>
<text text-anchor="start" x="80" y="-32.5" font-family="Helvetica,sans-Serif" font-size="10.00"> </text>
<text text-anchor="start" x="4.5" y="-17.5" font-family="Helvetica,sans-Serif" font-size="10.00">+</text>
<text text-anchor="start" x="17.5" y="-17.5" font-family="Helvetica,sans-Serif" font-size="10.00">HelpRequestedException(std</text>
<text text-anchor="start" x="17.5" y="-6.5" font-family="Helvetica,sans-Serif" font-size="10.00">::string detail=&quot;&quot;)</text>
<polygon fill="#666666" stroke="#666666" points="0.5,-42.5 0.5,-42.5 163.5,-42.5 163.5,-42.5 0.5,-42.5"/>
<polygon fill="#666666" stroke="#666666" points="0.5,-27.5 0.5,-27.5 163.5,-27.5 163.5,-27.5 0.5,-27.5"/>
<polygon fill="none" stroke="#666666" points="0,0 0,-71 163,-71 163,0 0,0"/>
</a>
</g>
</g>
<!-- Node1&#45;&gt;Node3 -->
<g id="edge2_Node000001_Node000003" class="edge">
<title>Node1&#45;&gt;Node3</title>
<g id="a_edge2_Node000001_Node000003"><a xlink:title=" ">
<path fill="none" stroke="#63b8ff" d="M833.18,-185.25C683.59,-169.25 403.37,-133.52 171.5,-71 168.75,-70.26 165.97,-69.46 163.18,-68.63"/>
<polygon fill="none" stroke="#63b8ff" points="832.97,-188.74 843.28,-186.32 833.7,-181.78 832.97,-188.74"/>
</a>
</g>
</g>
<!-- Node4 -->
<g id="Node000004" class="node">
<title>Node4</title>
<g id="a_Node000004"><a xlink:href="../../d2/d97/classOmegaL4Scanner_1_1Exceptions_1_1HostnameResolutionErrorException.html" target="_top" xlink:title="Exception class for hostname resolution error.">
<polygon fill="white" stroke="transparent" points="376,-71 181,-71 181,0 376,0 376,-71"/>
<text text-anchor="start" x="189" y="-58.5" font-family="Helvetica,sans-Serif" font-size="10.00">OmegaL4Scanner::Exceptions</text>
<text text-anchor="start" x="189" y="-47.5" font-family="Helvetica,sans-Serif" font-size="10.00">::HostnameResolutionErrorException</text>
<text text-anchor="start" x="277" y="-32.5" font-family="Helvetica,sans-Serif" font-size="10.00"> </text>
<text text-anchor="start" x="185.5" y="-17.5" font-family="Helvetica,sans-Serif" font-size="10.00">+</text>
<text text-anchor="start" x="198.5" y="-17.5" font-family="Helvetica,sans-Serif" font-size="10.00">HostnameResolutionErrorException</text>
<text text-anchor="start" x="198.5" y="-6.5" font-family="Helvetica,sans-Serif" font-size="10.00">(std::string detail=&quot;&quot;)</text>
<polygon fill="#666666" stroke="#666666" points="181.5,-42.5 181.5,-42.5 376.5,-42.5 376.5,-42.5 181.5,-42.5"/>
<polygon fill="#666666" stroke="#666666" points="181.5,-27.5 181.5,-27.5 376.5,-27.5 376.5,-27.5 181.5,-27.5"/>
<polygon fill="none" stroke="#666666" points="181,0 181,-71 376,-71 376,0 181,0"/>
</a>
</g>
</g>
<!-- Node1&#45;&gt;Node4 -->
<g id="edge3_Node000001_Node000004" class="edge">
<title>Node1&#45;&gt;Node4</title>
<g id="a_edge3_Node000001_Node000004"><a xlink:title=" ">
<path fill="none" stroke="#63b8ff" d="M833.1,-174.73C720.83,-152.09 539.11,-113.4 384.5,-71 381.7,-70.23 378.87,-69.44 376.01,-68.62"/>
<polygon fill="none" stroke="#63b8ff" points="832.57,-178.19 843.07,-176.73 833.95,-171.33 832.57,-178.19"/>
</a>
</g>
</g>
<!-- Node5 -->
<g id="Node000005" class="node">
<title>Node5</title>
<g id="a_Node000005"><a xlink:href="../../d5/d54/classOmegaL4Scanner_1_1Exceptions_1_1InterfaceErrorException.html" target="_top" xlink:title="Exception class for invalid interfaces.">
<polygon fill="white" stroke="transparent" points="549,-71 394,-71 394,0 549,0 549,-71"/>
<text text-anchor="start" x="399.5" y="-58.5" font-family="Helvetica,sans-Serif" font-size="10.00">OmegaL4Scanner::Exceptions</text>
<text text-anchor="start" x="411.5" y="-47.5" font-family="Helvetica,sans-Serif" font-size="10.00">::InterfaceErrorException</text>
<text text-anchor="start" x="470" y="-32.5" font-family="Helvetica,sans-Serif" font-size="10.00"> </text>
<text text-anchor="start" x="398.5" y="-17.5" font-family="Helvetica,sans-Serif" font-size="10.00">+</text>
<text text-anchor="start" x="411.5" y="-17.5" font-family="Helvetica,sans-Serif" font-size="10.00">InterfaceErrorException(std</text>
<text text-anchor="start" x="411.5" y="-6.5" font-family="Helvetica,sans-Serif" font-size="10.00">::string detail=&quot;&quot;)</text>
<polygon fill="#666666" stroke="#666666" points="394.5,-42.5 394.5,-42.5 549.5,-42.5 549.5,-42.5 394.5,-42.5"/>
<polygon fill="#666666" stroke="#666666" points="394.5,-27.5 394.5,-27.5 549.5,-27.5 549.5,-27.5 394.5,-27.5"/>
<polygon fill="none" stroke="#666666" points="394,0 394,-71 549,-71 549,0 394,0"/>
</a>
</g>
</g>
<!-- Node1&#45;&gt;Node5 -->
<g id="edge4_Node000001_Node000005" class="edge">
<title>Node1&#45;&gt;Node5</title>
<g id="a_edge4_Node000001_Node000005"><a xlink:title=" ">
<path fill="none" stroke="#63b8ff" d="M833.42,-163.01C756.4,-138.91 649.93,-104.56 557.5,-71 554.78,-70.01 552.01,-68.99 549.23,-67.95"/>
<polygon fill="none" stroke="#63b8ff" points="832.54,-166.4 843.13,-166.04 834.63,-159.72 832.54,-166.4"/>
</a>
</g>
</g>
<!-- Node6 -->
<g id="Node000006" class="node">
<title>Node6</title>
<g id="a_Node000006"><a xlink:href="../../d1/d8c/classOmegaL4Scanner_1_1Exceptions_1_1InterfacePrintRequestedException.html" target="_top" xlink:title="Thrown when interfaces are requested to be printed.">
<polygon fill="white" stroke="transparent" points="754,-71 567,-71 567,0 754,0 754,-71"/>
<text text-anchor="start" x="575" y="-58.5" font-family="Helvetica,sans-Serif" font-size="10.00">OmegaL4Scanner::Exceptions</text>
<text text-anchor="start" x="575" y="-47.5" font-family="Helvetica,sans-Serif" font-size="10.00">::InterfacePrintRequestedException</text>
<text text-anchor="start" x="659" y="-32.5" font-family="Helvetica,sans-Serif" font-size="10.00"> </text>
<text text-anchor="start" x="571.5" y="-17.5" font-family="Helvetica,sans-Serif" font-size="10.00">+</text>
<text text-anchor="start" x="584.5" y="-17.5" font-family="Helvetica,sans-Serif" font-size="10.00">InterfacePrintRequestedException</text>
<text text-anchor="start" x="584.5" y="-6.5" font-family="Helvetica,sans-Serif" font-size="10.00">(std::string detail=&quot;&quot;)</text>
<polygon fill="#666666" stroke="#666666" points="567.5,-42.5 567.5,-42.5 754.5,-42.5 754.5,-42.5 567.5,-42.5"/>
<polygon fill="#666666" stroke="#666666" points="567.5,-27.5 567.5,-27.5 754.5,-27.5 754.5,-27.5 567.5,-27.5"/>
<polygon fill="none" stroke="#666666" points="567,0 567,-71 754,-71 754,0 567,0"/>
</a>
</g>
</g>
<!-- Node1&#45;&gt;Node6 -->
<g id="edge5_Node000001_Node000006" class="edge">
<title>Node1&#45;&gt;Node6</title>
<g id="a_edge5_Node000001_Node000006"><a xlink:title=" ">
<path fill="none" stroke="#63b8ff" d="M834.38,-135.59C796.21,-113.84 754.38,-90 721.31,-71.16"/>
<polygon fill="none" stroke="#63b8ff" points="833.06,-138.87 843.48,-140.78 836.53,-132.79 833.06,-138.87"/>
</a>
</g>
</g>
<!-- Node7 -->
<g id="Node000007" class="node">
<title>Node7</title>
<g id="a_Node000007"><a xlink:href="../../d7/d21/classOmegaL4Scanner_1_1Exceptions_1_1InternalErrorException.html" target="_top" xlink:title="Exception class for internal errors.">
<polygon fill="white" stroke="transparent" points="927,-71 772,-71 772,0 927,0 927,-71"/>
<text text-anchor="start" x="777.5" y="-58.5" font-family="Helvetica,sans-Serif" font-size="10.00">OmegaL4Scanner::Exceptions</text>
<text text-anchor="start" x="792.5" y="-47.5" font-family="Helvetica,sans-Serif" font-size="10.00">::InternalErrorException</text>
<text text-anchor="start" x="848" y="-32.5" font-family="Helvetica,sans-Serif" font-size="10.00"> </text>
<text text-anchor="start" x="778" y="-17.5" font-family="Helvetica,sans-Serif" font-size="10.00">+</text>
<text text-anchor="start" x="792.5" y="-17.5" font-family="Helvetica,sans-Serif" font-size="10.00">InternalErrorException(std</text>
<text text-anchor="start" x="792.5" y="-6.5" font-family="Helvetica,sans-Serif" font-size="10.00">::string detail=&quot;&quot;)</text>
<polygon fill="#666666" stroke="#666666" points="772.5,-42.5 772.5,-42.5 927.5,-42.5 927.5,-42.5 772.5,-42.5"/>
<polygon fill="#666666" stroke="#666666" points="772.5,-27.5 772.5,-27.5 927.5,-27.5 927.5,-27.5 772.5,-27.5"/>
<polygon fill="none" stroke="#666666" points="772,0 772,-71 927,-71 927,0 772,0"/>
</a>
</g>
</g>
<!-- Node1&#45;&gt;Node7 -->
<g id="edge6_Node000001_Node000007" class="edge">
<title>Node1&#45;&gt;Node7</title>
<g id="a_edge6_Node000001_Node000007"><a xlink:title=" ">
<path fill="none" stroke="#63b8ff" d="M884.29,-97.97C878.96,-88.55 873.83,-79.48 869.22,-71.34"/>
<polygon fill="none" stroke="#63b8ff" points="881.27,-99.72 889.24,-106.7 887.36,-96.28 881.27,-99.72"/>
</a>
</g>
</g>
<!-- Node8 -->
<g id="Node000008" class="node">
<title>Node8</title>
<g id="a_Node000008"><a xlink:href="../../d6/d6a/classOmegaL4Scanner_1_1Exceptions_1_1InvalidArgumentException.html" target="_top" xlink:title="Exception class for invalid arguments.">
<polygon fill="white" stroke="transparent" points="1114,-71 945,-71 945,0 1114,0 1114,-71"/>
<text text-anchor="start" x="957.5" y="-58.5" font-family="Helvetica,sans-Serif" font-size="10.00">OmegaL4Scanner::Exceptions</text>
<text text-anchor="start" x="962" y="-47.5" font-family="Helvetica,sans-Serif" font-size="10.00">::InvalidArgumentException</text>
<text text-anchor="start" x="1028" y="-32.5" font-family="Helvetica,sans-Serif" font-size="10.00"> </text>
<text text-anchor="start" x="949.5" y="-17.5" font-family="Helvetica,sans-Serif" font-size="10.00">+</text>
<text text-anchor="start" x="962.5" y="-17.5" font-family="Helvetica,sans-Serif" font-size="10.00">InvalidArgumentException(std</text>
<text text-anchor="start" x="962.5" y="-6.5" font-family="Helvetica,sans-Serif" font-size="10.00">::string detail=&quot;&quot;)</text>
<polygon fill="#666666" stroke="#666666" points="945.5,-42.5 945.5,-42.5 1114.5,-42.5 1114.5,-42.5 945.5,-42.5"/>
<polygon fill="#666666" stroke="#666666" points="945.5,-27.5 945.5,-27.5 1114.5,-27.5 1114.5,-27.5 945.5,-27.5"/>
<polygon fill="none" stroke="#666666" points="945,0 945,-71 1114,-71 1114,0 945,0"/>
</a>
</g>
</g>
<!-- Node1&#45;&gt;Node8 -->
<g id="edge7_Node000001_Node000008" class="edge">
<title>Node1&#45;&gt;Node8</title>
<g id="a_edge7_Node000001_Node000008"><a xlink:title=" ">
<path fill="none" stroke="#63b8ff" d="M994.71,-97.97C1000.04,-88.55 1005.17,-79.48 1009.78,-71.34"/>
<polygon fill="none" stroke="#63b8ff" points="991.64,-96.28 989.76,-106.7 997.73,-99.72 991.64,-96.28"/>
</a>
</g>
</g>
<!-- Node9 -->
<g id="Node000009" class="node">
<title>Node9</title>
<g id="a_Node000009"><a xlink:href="../../da/d84/classOmegaL4Scanner_1_1Exceptions_1_1LibnetErrorException.html" target="_top" xlink:title="Exception class for libnet errors.">
<polygon fill="white" stroke="transparent" points="1287,-71 1132,-71 1132,0 1287,0 1287,-71"/>
<text text-anchor="start" x="1137.5" y="-58.5" font-family="Helvetica,sans-Serif" font-size="10.00">OmegaL4Scanner::Exceptions</text>
<text text-anchor="start" x="1156" y="-47.5" font-family="Helvetica,sans-Serif" font-size="10.00">::LibnetErrorException</text>
<text text-anchor="start" x="1208" y="-32.5" font-family="Helvetica,sans-Serif" font-size="10.00"> </text>
<text text-anchor="start" x="1138" y="-17.5" font-family="Helvetica,sans-Serif" font-size="10.00">+</text>
<text text-anchor="start" x="1152.5" y="-17.5" font-family="Helvetica,sans-Serif" font-size="10.00">LibnetErrorException(std::</text>
<text text-anchor="start" x="1152.5" y="-6.5" font-family="Helvetica,sans-Serif" font-size="10.00">string detail=&quot;&quot;)</text>
<polygon fill="#666666" stroke="#666666" points="1132.5,-42.5 1132.5,-42.5 1287.5,-42.5 1287.5,-42.5 1132.5,-42.5"/>
<polygon fill="#666666" stroke="#666666" points="1132.5,-27.5 1132.5,-27.5 1287.5,-27.5 1287.5,-27.5 1132.5,-27.5"/>
<polygon fill="none" stroke="#666666" points="1132,0 1132,-71 1287,-71 1287,0 1132,0"/>
</a>
</g>
</g>
<!-- Node1&#45;&gt;Node9 -->
<g id="edge8_Node000001_Node000009" class="edge">
<title>Node1&#45;&gt;Node9</title>
<g id="a_edge8_Node000001_Node000009"><a xlink:title=" ">
<path fill="none" stroke="#63b8ff" d="M1044.89,-133.44C1080.79,-112.3 1119.62,-89.43 1150.55,-71.21"/>
<polygon fill="none" stroke="#63b8ff" points="1042.67,-130.68 1035.83,-138.77 1046.23,-136.71 1042.67,-130.68"/>
</a>
</g>
</g>
<!-- Node10 -->
<g id="Node000010" class="node">
<title>Node10</title>
<g id="a_Node000010"><a xlink:href="../../df/da7/classOmegaL4Scanner_1_1Exceptions_1_1SocketErrorException.html" target="_top" xlink:title="Exception class for socket errors.">
<polygon fill="white" stroke="transparent" points="1460,-71 1305,-71 1305,0 1460,0 1460,-71"/>
<text text-anchor="start" x="1310.5" y="-58.5" font-family="Helvetica,sans-Serif" font-size="10.00">OmegaL4Scanner::Exceptions</text>
<text text-anchor="start" x="1328" y="-47.5" font-family="Helvetica,sans-Serif" font-size="10.00">::SocketErrorException</text>
<text text-anchor="start" x="1381" y="-32.5" font-family="Helvetica,sans-Serif" font-size="10.00"> </text>
<text text-anchor="start" x="1310.5" y="-17.5" font-family="Helvetica,sans-Serif" font-size="10.00">+</text>
<text text-anchor="start" x="1324.5" y="-17.5" font-family="Helvetica,sans-Serif" font-size="10.00">SocketErrorException(std::</text>
<text text-anchor="start" x="1324.5" y="-6.5" font-family="Helvetica,sans-Serif" font-size="10.00">string detail=&quot;&quot;)</text>
<polygon fill="#666666" stroke="#666666" points="1305.5,-42.5 1305.5,-42.5 1460.5,-42.5 1460.5,-42.5 1305.5,-42.5"/>
<polygon fill="#666666" stroke="#666666" points="1305.5,-27.5 1305.5,-27.5 1460.5,-27.5 1460.5,-27.5 1305.5,-27.5"/>
<polygon fill="none" stroke="#666666" points="1305,0 1305,-71 1460,-71 1460,0 1305,0"/>
</a>
</g>
</g>
<!-- Node1&#45;&gt;Node10 -->
<g id="edge9_Node000001_Node000010" class="edge">
<title>Node1&#45;&gt;Node10</title>
<g id="a_edge9_Node000001_Node000010"><a xlink:title=" ">
<path fill="none" stroke="#63b8ff" d="M1045.65,-159.91C1116.9,-135.67 1212.7,-102.4 1296.5,-71 1299.21,-69.98 1301.97,-68.94 1304.75,-67.88"/>
<polygon fill="none" stroke="#63b8ff" points="1044.11,-156.74 1035.77,-163.27 1046.36,-163.36 1044.11,-156.74"/>
</a>
</g>
</g>
<!-- Node11 -->
<g id="Node000011" class="node">
<title>Node11</title>
<g id="a_Node000011"><a xlink:href="../../df/ddc/classOmegaL4Scanner_1_1Exceptions_1_1UknownErrorException.html" target="_top" xlink:title="Exception class for unknown errors.">
<polygon fill="white" stroke="transparent" points="1635,-71 1478,-71 1478,0 1635,0 1635,-71"/>
<text text-anchor="start" x="1484.5" y="-58.5" font-family="Helvetica,sans-Serif" font-size="10.00">OmegaL4Scanner::Exceptions</text>
<text text-anchor="start" x="1498" y="-47.5" font-family="Helvetica,sans-Serif" font-size="10.00">::UknownErrorException</text>
<text text-anchor="start" x="1555" y="-32.5" font-family="Helvetica,sans-Serif" font-size="10.00"> </text>
<text text-anchor="start" x="1482.5" y="-17.5" font-family="Helvetica,sans-Serif" font-size="10.00">+</text>
<text text-anchor="start" x="1495.5" y="-17.5" font-family="Helvetica,sans-Serif" font-size="10.00">UknownErrorException(std::</text>
<text text-anchor="start" x="1495.5" y="-6.5" font-family="Helvetica,sans-Serif" font-size="10.00">string detail=&quot;&quot;)</text>
<polygon fill="#666666" stroke="#666666" points="1478.5,-42.5 1478.5,-42.5 1635.5,-42.5 1635.5,-42.5 1478.5,-42.5"/>
<polygon fill="#666666" stroke="#666666" points="1478.5,-27.5 1478.5,-27.5 1635.5,-27.5 1635.5,-27.5 1478.5,-27.5"/>
<polygon fill="none" stroke="#666666" points="1478,0 1478,-71 1635,-71 1635,0 1478,0"/>
</a>
</g>
</g>
<!-- Node1&#45;&gt;Node11 -->
<g id="edge10_Node000001_Node000011" class="edge">
<title>Node1&#45;&gt;Node11</title>
<g id="a_edge10_Node000001_Node000011"><a xlink:title=" ">
<path fill="none" stroke="#63b8ff" d="M1045.82,-175.31C1153.72,-153.71 1324.99,-116.36 1469.5,-71 1472.29,-70.12 1475.12,-69.2 1477.97,-68.24"/>
<polygon fill="none" stroke="#63b8ff" points="1045.03,-171.9 1035.91,-177.29 1046.4,-178.77 1045.03,-171.9"/>
</a>
</g>
</g>
<!-- Node12 -->
<g id="Node000012" class="node">
<title>Node12</title>
<g id="a_Node000012"><a xlink:href="../../dc/d47/classOmegaL4Scanner_1_1Exceptions_1_1UserInterruptionException.html" target="_top" xlink:title="Exception class for user interruptions.">
<polygon fill="white" stroke="transparent" points="1808,-71 1653,-71 1653,0 1808,0 1808,-71"/>
<text text-anchor="start" x="1658.5" y="-58.5" font-family="Helvetica,sans-Serif" font-size="10.00">OmegaL4Scanner::Exceptions</text>
<text text-anchor="start" x="1664" y="-47.5" font-family="Helvetica,sans-Serif" font-size="10.00">::UserInterruptionException</text>
<text text-anchor="start" x="1729" y="-32.5" font-family="Helvetica,sans-Serif" font-size="10.00"> </text>
<text text-anchor="start" x="1659" y="-17.5" font-family="Helvetica,sans-Serif" font-size="10.00">+</text>
<text text-anchor="start" x="1673.5" y="-17.5" font-family="Helvetica,sans-Serif" font-size="10.00">UserInterruptionException</text>
<text text-anchor="start" x="1673.5" y="-6.5" font-family="Helvetica,sans-Serif" font-size="10.00">(std::string detail=&quot;&quot;)</text>
<polygon fill="#666666" stroke="#666666" points="1653.5,-42.5 1653.5,-42.5 1808.5,-42.5 1808.5,-42.5 1653.5,-42.5"/>
<polygon fill="#666666" stroke="#666666" points="1653.5,-27.5 1653.5,-27.5 1808.5,-27.5 1808.5,-27.5 1653.5,-27.5"/>
<polygon fill="none" stroke="#666666" points="1653,0 1653,-71 1808,-71 1808,0 1653,0"/>
</a>
</g>
</g>
<!-- Node1&#45;&gt;Node12 -->
<g id="edge11_Node000001_Node000012" class="edge">
<title>Node1&#45;&gt;Node12</title>
<g id="a_edge11_Node000001_Node000012"><a xlink:title=" ">
<path fill="none" stroke="#63b8ff" d="M1045.81,-183.68C1185.18,-166.62 1436.38,-130.43 1644.5,-71 1647.28,-70.2 1650.1,-69.35 1652.94,-68.45"/>
<polygon fill="none" stroke="#63b8ff" points="1045.07,-180.25 1035.56,-184.93 1045.91,-187.2 1045.07,-180.25"/>
</a>
</g>
</g>
<!-- Node2 -->
<g id="Node000002" class="node">
<title>Node2</title>
<g id="a_Node000002"><a xlink:title=" ">
<polygon fill="white" stroke="transparent" points="979.5,-371 899.5,-371 899.5,-322 979.5,-322 979.5,-371"/>
<text text-anchor="start" x="904.5" y="-358.5" font-family="Helvetica,sans-Serif" font-size="10.00">std::exception</text>
<text text-anchor="start" x="937.5" y="-343.5" font-family="Helvetica,sans-Serif" font-size="10.00"> </text>
<text text-anchor="start" x="937.5" y="-328.5" font-family="Helvetica,sans-Serif" font-size="10.00"> </text>
<polygon fill="#666666" stroke="#666666" points="899.5,-353.5 899.5,-353.5 979.5,-353.5 979.5,-353.5 899.5,-353.5"/>
<polygon fill="#666666" stroke="#666666" points="899.5,-338.5 899.5,-338.5 979.5,-338.5 979.5,-338.5 899.5,-338.5"/>
<polygon fill="none" stroke="#666666" points="899.5,-322 899.5,-371 979.5,-371 979.5,-322 899.5,-322"/>
</a>
</g>
</g>
<!-- Node2&#45;&gt;Node1 -->
<g id="edge1_Node000001_Node000002" class="edge">
<title>Node2&#45;&gt;Node1</title>
<g id="a_edge1_Node000001_Node000002"><a xlink:title=" ">
<path fill="none" stroke="#63b8ff" d="M939.5,-311.67C939.5,-303.86 939.5,-295.21 939.5,-286.25"/>
<polygon fill="none" stroke="#63b8ff" points="936,-311.72 939.5,-321.72 943,-311.72 936,-311.72"/>
</a>
</g>
</g>
</g>
</svg>
