<?xml version="1.0" encoding="UTF-8" standalone="no"?>
<!DOCTYPE svg PUBLIC "-//W3C//DTD SVG 1.1//EN"
 "http://www.w3.org/Graphics/SVG/1.1/DTD/svg11.dtd">
<!-- Generated by graphviz version 2.43.0 (0)
 -->
<!-- Title: OmegaL4Scanner::Scanning::PortScanner::checkRawResponse Pages: 1 -->
<svg width="478pt" height="182pt"
 viewBox="0.00 0.00 478.00 182.00" xmlns="http://www.w3.org/2000/svg" xmlns:xlink="http://www.w3.org/1999/xlink">
<g id="graph0" class="graph" transform="scale(1 1) rotate(0) translate(4 178)">
<title>OmegaL4Scanner::Scanning::PortScanner::checkRawResponse</title>
<!-- Node1 -->
<g id="Node000001" class="node">
<title>Node1</title>
<g id="a_Node000001"><a xlink:title="Checks for a response on a raw socket.">
<polygon fill="#999999" stroke="#666666" points="217,-102 0,-102 0,-72 217,-72 217,-102"/>
<text text-anchor="start" x="8" y="-90" font-family="Helvetica,sans-Serif" font-size="10.00">OmegaL4Scanner::Scanning::PortScanner</text>
<text text-anchor="middle" x="108.5" y="-79" font-family="Helvetica,sans-Serif" font-size="10.00">::checkRawResponse</text>
</a>
</g>
</g>
<!-- Node2 -->
<g id="Node000002" class="node">
<title>Node2</title>
<g id="a_Node000002"><a xlink:href="../../dc/db6/classOmegaL4Scanner_1_1Scanning_1_1PortScanner.html#a9db90b576dc181cd5d21531c1832ecea" target="_top" xlink:title="Determines the status of a port based on the received packet.">
<polygon fill="white" stroke="#666666" points="470,-174 253,-174 253,-144 470,-144 470,-174"/>
<text text-anchor="start" x="261" y="-162" font-family="Helvetica,sans-Serif" font-size="10.00">OmegaL4Scanner::Scanning::PortScanner</text>
<text text-anchor="middle" x="361.5" y="-151" font-family="Helvetica,sans-Serif" font-size="10.00">::determinePortStatus</text>
</a>
</g>
</g>
<!-- Node1&#45;&gt;Node2 -->
<g id="edge1_Node000001_Node000002" class="edge">
<title>Node1&#45;&gt;Node2</title>
<g id="a_edge1_Node000001_Node000002"><a xlink:title=" ">
<path fill="none" stroke="#63b8ff" d="M150.6,-102C179.1,-112.1 218.07,-125.29 253,-135 261.23,-137.29 269.87,-139.51 278.51,-141.62"/>
<polygon fill="#63b8ff" stroke="#63b8ff" points="277.71,-145.03 288.25,-143.95 279.34,-138.22 277.71,-145.03"/>
</a>
</g>
</g>
<!-- Node3 -->
<g id="Node000003" class="node">
<title>Node3</title>
<g id="a_Node000003"><a xlink:href="../../dc/db6/classOmegaL4Scanner_1_1Scanning_1_1PortScanner.html#a94b0f198bfe6ae64e4feabb53a1fd312" target="_top" xlink:title="Initializes the file descriptor set for the select() call.">
<polygon fill="white" stroke="#666666" points="470,-126 253,-126 253,-96 470,-96 470,-126"/>
<text text-anchor="start" x="261" y="-114" font-family="Helvetica,sans-Serif" font-size="10.00">OmegaL4Scanner::Scanning::PortScanner</text>
<text text-anchor="middle" x="361.5" y="-103" font-family="Helvetica,sans-Serif" font-size="10.00">::initializeFdSet</text>
</a>
</g>
</g>
<!-- Node1&#45;&gt;Node3 -->
<g id="edge2_Node000001_Node000003" class="edge">
<title>Node1&#45;&gt;Node3</title>
<g id="a_edge2_Node000001_Node000003"><a xlink:title=" ">
<path fill="none" stroke="#63b8ff" d="M217.04,-97.28C225.55,-98.1 234.17,-98.92 242.75,-99.74"/>
<polygon fill="#63b8ff" stroke="#63b8ff" points="242.5,-103.23 252.79,-100.7 243.16,-96.26 242.5,-103.23"/>
</a>
</g>
</g>
<!-- Node4 -->
<g id="Node000004" class="node">
<title>Node4</title>
<g id="a_Node000004"><a xlink:href="../../dc/db6/classOmegaL4Scanner_1_1Scanning_1_1PortScanner.html#a7be2e3149e02495c97972fb6ab01b6cc" target="_top" xlink:title="Calls the select() function to monitor the raw socket for readability.">
<polygon fill="white" stroke="#666666" points="470,-78 253,-78 253,-48 470,-48 470,-78"/>
<text text-anchor="start" x="261" y="-66" font-family="Helvetica,sans-Serif" font-size="10.00">OmegaL4Scanner::Scanning::PortScanner</text>
<text text-anchor="middle" x="361.5" y="-55" font-family="Helvetica,sans-Serif" font-size="10.00">::selectSocket</text>
</a>
</g>
</g>
<!-- Node1&#45;&gt;Node4 -->
<g id="edge3_Node000001_Node000004" class="edge">
<title>Node1&#45;&gt;Node4</title>
<g id="a_edge3_Node000001_Node000004"><a xlink:title=" ">
<path fill="none" stroke="#63b8ff" d="M217.04,-76.72C225.55,-75.9 234.17,-75.08 242.75,-74.26"/>
<polygon fill="#63b8ff" stroke="#63b8ff" points="243.16,-77.74 252.79,-73.3 242.5,-70.77 243.16,-77.74"/>
</a>
</g>
</g>
<!-- Node5 -->
<g id="Node000005" class="node">
<title>Node5</title>
<g id="a_Node000005"><a xlink:href="../../dc/db6/classOmegaL4Scanner_1_1Scanning_1_1PortScanner.html#aab3b58c5f57825cac4c606a88d77d054" target="_top" xlink:title="Sets the timeval structure for the select() call.">
<polygon fill="white" stroke="#666666" points="470,-30 253,-30 253,0 470,0 470,-30"/>
<text text-anchor="start" x="261" y="-18" font-family="Helvetica,sans-Serif" font-size="10.00">OmegaL4Scanner::Scanning::PortScanner</text>
<text text-anchor="middle" x="361.5" y="-7" font-family="Helvetica,sans-Serif" font-size="10.00">::setTimeval</text>
</a>
</g>
</g>
<!-- Node1&#45;&gt;Node5 -->
<g id="edge4_Node000001_Node000005" class="edge">
<title>Node1&#45;&gt;Node5</title>
<g id="a_edge4_Node000001_Node000005"><a xlink:title=" ">
<path fill="none" stroke="#63b8ff" d="M150.6,-72C179.1,-61.9 218.07,-48.71 253,-39 261.23,-36.71 269.87,-34.49 278.51,-32.38"/>
<polygon fill="#63b8ff" stroke="#63b8ff" points="279.34,-35.78 288.25,-30.05 277.71,-28.97 279.34,-35.78"/>
</a>
</g>
</g>
</g>
</svg>
