<?xml version="1.0" encoding="UTF-8" standalone="no"?>
<!DOCTYPE svg PUBLIC "-//W3C//DTD SVG 1.1//EN"
 "http://www.w3.org/Graphics/SVG/1.1/DTD/svg11.dtd">
<!-- Generated by graphviz version 2.43.0 (0)
 -->
<!-- Title: OmegaL4Scanner::Scanning::UdpScanner::scanPort Pages: 1 -->
<svg width="1018pt" height="652pt"
 viewBox="0.00 0.00 1018.00 652.00" xmlns="http://www.w3.org/2000/svg" xmlns:xlink="http://www.w3.org/1999/xlink">
<g id="graph0" class="graph" transform="scale(1 1) rotate(0) translate(4 648)">
<title>OmegaL4Scanner::Scanning::UdpScanner::scanPort</title>
<!-- Node1 -->
<g id="Node000001" class="node">
<title>Node1</title>
<g id="a_Node000001"><a xlink:title="Scans a specific port.">
<polygon fill="#999999" stroke="#666666" points="217,-222 0,-222 0,-192 217,-192 217,-222"/>
<text text-anchor="start" x="8" y="-210" font-family="Helvetica,sans-Serif" font-size="10.00">OmegaL4Scanner::Scanning::UdpScanner</text>
<text text-anchor="middle" x="108.5" y="-199" font-family="Helvetica,sans-Serif" font-size="10.00">::scanPort</text>
</a>
</g>
</g>
<!-- Node2 -->
<g id="Node000002" class="node">
<title>Node2</title>
<g id="a_Node000002"><a xlink:href="../../dc/db6/classOmegaL4Scanner_1_1Scanning_1_1PortScanner.html#abcf499b7511194d3f8ac5388fcedb77b" target="_top" xlink:title="Checks for a response on a raw socket.">
<polygon fill="white" stroke="#666666" points="470,-548 253,-548 253,-518 470,-518 470,-548"/>
<text text-anchor="start" x="261" y="-536" font-family="Helvetica,sans-Serif" font-size="10.00">OmegaL4Scanner::Scanning::PortScanner</text>
<text text-anchor="middle" x="361.5" y="-525" font-family="Helvetica,sans-Serif" font-size="10.00">::checkRawResponse</text>
</a>
</g>
</g>
<!-- Node1&#45;&gt;Node2 -->
<g id="edge1_Node000001_Node000002" class="edge">
<title>Node1&#45;&gt;Node2</title>
<g id="a_edge1_Node000001_Node000002"><a xlink:title=" ">
<path fill="none" stroke="#63b8ff" d="M121.27,-222.29C161.54,-274.59 293.97,-446.6 342.49,-509.6"/>
<polygon fill="#63b8ff" stroke="#63b8ff" points="339.88,-511.96 348.76,-517.75 345.43,-507.69 339.88,-511.96"/>
</a>
</g>
</g>
<!-- Node7 -->
<g id="Node000007" class="node">
<title>Node7</title>
<g id="a_Node000007"><a xlink:href="../../dc/db6/classOmegaL4Scanner_1_1Scanning_1_1PortScanner.html#aa271413f606b89a1fe0ae04dbc0df414" target="_top" xlink:title="Builds the IP header (either IPv4 or IPv6) using libnet.">
<polygon fill="white" stroke="#666666" points="470,-380 253,-380 253,-350 470,-350 470,-380"/>
<text text-anchor="start" x="261" y="-368" font-family="Helvetica,sans-Serif" font-size="10.00">OmegaL4Scanner::Scanning::PortScanner</text>
<text text-anchor="middle" x="361.5" y="-357" font-family="Helvetica,sans-Serif" font-size="10.00">::createIpHeader</text>
</a>
</g>
</g>
<!-- Node1&#45;&gt;Node7 -->
<g id="edge6_Node000001_Node000007" class="edge">
<title>Node1&#45;&gt;Node7</title>
<g id="a_edge6_Node000001_Node000007"><a xlink:title=" ">
<path fill="none" stroke="#63b8ff" d="M127.81,-222.01C154.41,-243.44 205.74,-283.36 253,-312 273.43,-324.38 297.16,-336.32 317.12,-345.72"/>
<polygon fill="#63b8ff" stroke="#63b8ff" points="315.75,-348.94 326.29,-349.99 318.7,-342.59 315.75,-348.94"/>
</a>
</g>
</g>
<!-- Node9 -->
<g id="Node000009" class="node">
<title>Node9</title>
<g id="a_Node000009"><a xlink:href="../../d1/ded/classOmegaL4Scanner_1_1Utilities_1_1RandomNumberGenerator.html#a08ec13cf468def2b2cc0faa3eb9e47c2" target="_top" xlink:title="Generates a random 16&#45;bit ephemeral port number.">
<polygon fill="white" stroke="#666666" points="1010,-382 759,-382 759,-352 1010,-352 1010,-382"/>
<text text-anchor="start" x="767" y="-370" font-family="Helvetica,sans-Serif" font-size="10.00">OmegaL4Scanner::Utilities::</text>
<text text-anchor="middle" x="884.5" y="-359" font-family="Helvetica,sans-Serif" font-size="10.00">RandomNumberGenerator::getEphemeralPort16</text>
</a>
</g>
</g>
<!-- Node1&#45;&gt;Node9 -->
<g id="edge13_Node000001_Node000009" class="edge">
<title>Node1&#45;&gt;Node9</title>
<g id="a_edge13_Node000001_Node000009"><a xlink:title=" ">
<path fill="none" stroke="#63b8ff" d="M132.73,-222.2C160.2,-239.32 207.91,-266.38 253,-279 454.82,-335.48 517.25,-277.15 723,-317 761.01,-324.36 802.72,-337.52 834.09,-348.49"/>
<polygon fill="#63b8ff" stroke="#63b8ff" points="833.3,-351.92 843.89,-351.96 835.64,-345.32 833.3,-351.92"/>
</a>
</g>
</g>
<!-- Node12 -->
<g id="Node000012" class="node">
<title>Node12</title>
<g id="a_Node000012"><a xlink:href="../../dc/db6/classOmegaL4Scanner_1_1Scanning_1_1PortScanner.html#a4fc97778aa3eeb9b3347e0da822e17d3" target="_top" xlink:title="Creates a raw socket.">
<polygon fill="white" stroke="#666666" points="470,-270 253,-270 253,-240 470,-240 470,-270"/>
<text text-anchor="start" x="261" y="-258" font-family="Helvetica,sans-Serif" font-size="10.00">OmegaL4Scanner::Scanning::PortScanner</text>
<text text-anchor="middle" x="361.5" y="-247" font-family="Helvetica,sans-Serif" font-size="10.00">::createRawSocket</text>
</a>
</g>
</g>
<!-- Node1&#45;&gt;Node12 -->
<g id="edge11_Node000001_Node000012" class="edge">
<title>Node1&#45;&gt;Node12</title>
<g id="a_edge11_Node000001_Node000012"><a xlink:title=" ">
<path fill="none" stroke="#63b8ff" d="M188.23,-222.06C214.86,-227.15 244.78,-232.87 272.11,-238.1"/>
<polygon fill="#63b8ff" stroke="#63b8ff" points="271.57,-241.56 282.05,-240 272.89,-234.68 271.57,-241.56"/>
</a>
</g>
</g>
<!-- Node13 -->
<g id="Node000013" class="node">
<title>Node13</title>
<g id="a_Node000013"><a xlink:href="../../d8/d14/classOmegaL4Scanner_1_1Scanning_1_1UdpScanner.html#afb389ddc139ca0a3be70a2c0ede3fee4" target="_top" xlink:title="Constructs the UDP header for the packet using the libnet library.">
<polygon fill="white" stroke="#666666" points="470,-222 253,-222 253,-192 470,-192 470,-222"/>
<text text-anchor="start" x="261" y="-210" font-family="Helvetica,sans-Serif" font-size="10.00">OmegaL4Scanner::Scanning::UdpScanner</text>
<text text-anchor="middle" x="361.5" y="-199" font-family="Helvetica,sans-Serif" font-size="10.00">::createUdpHeader</text>
</a>
</g>
</g>
<!-- Node1&#45;&gt;Node13 -->
<g id="edge12_Node000001_Node000013" class="edge">
<title>Node1&#45;&gt;Node13</title>
<g id="a_edge12_Node000001_Node000013"><a xlink:title=" ">
<path fill="none" stroke="#63b8ff" d="M217.04,-207C225.55,-207 234.17,-207 242.75,-207"/>
<polygon fill="#63b8ff" stroke="#63b8ff" points="242.79,-210.5 252.79,-207 242.79,-203.5 242.79,-210.5"/>
</a>
</g>
</g>
<!-- Node14 -->
<g id="Node000014" class="node">
<title>Node14</title>
<g id="a_Node000014"><a xlink:href="../../dc/db6/classOmegaL4Scanner_1_1Scanning_1_1PortScanner.html#af58ce2ce36ed427bebf23b78243b5709" target="_top" xlink:title="Determines the IP address version (IPv4 or IPv6) of the given IP address string.">
<polygon fill="white" stroke="#666666" points="470,-174 253,-174 253,-144 470,-144 470,-174"/>
<text text-anchor="start" x="261" y="-162" font-family="Helvetica,sans-Serif" font-size="10.00">OmegaL4Scanner::Scanning::PortScanner</text>
<text text-anchor="middle" x="361.5" y="-151" font-family="Helvetica,sans-Serif" font-size="10.00">::getIpAddressVersion</text>
</a>
</g>
</g>
<!-- Node1&#45;&gt;Node14 -->
<g id="edge14_Node000001_Node000014" class="edge">
<title>Node1&#45;&gt;Node14</title>
<g id="a_edge14_Node000001_Node000014"><a xlink:title=" ">
<path fill="none" stroke="#63b8ff" d="M188.23,-191.94C214.86,-186.85 244.78,-181.13 272.11,-175.9"/>
<polygon fill="#63b8ff" stroke="#63b8ff" points="272.89,-179.32 282.05,-174 271.57,-172.44 272.89,-179.32"/>
</a>
</g>
</g>
<!-- Node15 -->
<g id="Node000015" class="node">
<title>Node15</title>
<g id="a_Node000015"><a xlink:href="../../dc/db6/classOmegaL4Scanner_1_1Scanning_1_1PortScanner.html#afa3fbe0863c0ca2d714e10654120cd53" target="_top" xlink:title="Initializes the libnet context.">
<polygon fill="white" stroke="#666666" points="470,-126 253,-126 253,-96 470,-96 470,-126"/>
<text text-anchor="start" x="261" y="-114" font-family="Helvetica,sans-Serif" font-size="10.00">OmegaL4Scanner::Scanning::PortScanner</text>
<text text-anchor="middle" x="361.5" y="-103" font-family="Helvetica,sans-Serif" font-size="10.00">::initLibnetContext</text>
</a>
</g>
</g>
<!-- Node1&#45;&gt;Node15 -->
<g id="edge15_Node000001_Node000015" class="edge">
<title>Node1&#45;&gt;Node15</title>
<g id="a_edge15_Node000001_Node000015"><a xlink:title=" ">
<path fill="none" stroke="#63b8ff" d="M134.84,-191.88C162.87,-175.73 209.81,-150.39 253,-135 259.29,-132.76 265.87,-130.68 272.54,-128.76"/>
<polygon fill="#63b8ff" stroke="#63b8ff" points="273.63,-132.09 282.35,-126.07 271.78,-125.34 273.63,-132.09"/>
</a>
</g>
</g>
<!-- Node16 -->
<g id="Node000016" class="node">
<title>Node16</title>
<g id="a_Node000016"><a xlink:href="../../dc/db6/classOmegaL4Scanner_1_1Scanning_1_1PortScanner.html#acaec042a8507180ceaf19c0f363408b9" target="_top" xlink:title="Converts a timeout in milliseconds to an integer.">
<polygon fill="white" stroke="#666666" points="470,-78 253,-78 253,-48 470,-48 470,-78"/>
<text text-anchor="start" x="261" y="-66" font-family="Helvetica,sans-Serif" font-size="10.00">OmegaL4Scanner::Scanning::PortScanner</text>
<text text-anchor="middle" x="361.5" y="-55" font-family="Helvetica,sans-Serif" font-size="10.00">::millisecondsToInt</text>
</a>
</g>
</g>
<!-- Node1&#45;&gt;Node16 -->
<g id="edge16_Node000001_Node000016" class="edge">
<title>Node1&#45;&gt;Node16</title>
<g id="a_edge16_Node000001_Node000016"><a xlink:title=" ">
<path fill="none" stroke="#63b8ff" d="M122.9,-191.81C146.52,-166.06 198.24,-114 253,-87 257.07,-85 261.3,-83.16 265.64,-81.47"/>
<polygon fill="#63b8ff" stroke="#63b8ff" points="267.04,-84.69 275.27,-78.01 264.67,-78.1 267.04,-84.69"/>
</a>
</g>
</g>
<!-- Node17 -->
<g id="Node000017" class="node">
<title>Node17</title>
<g id="a_Node000017"><a xlink:href="../../dc/db6/classOmegaL4Scanner_1_1Scanning_1_1PortScanner.html#ab7e63044ac30a7502d52f7b22555d9b9" target="_top" xlink:title="Configures the specified socket to operate in non&#45;blocking mode.">
<polygon fill="white" stroke="#666666" points="470,-30 253,-30 253,0 470,0 470,-30"/>
<text text-anchor="start" x="261" y="-18" font-family="Helvetica,sans-Serif" font-size="10.00">OmegaL4Scanner::Scanning::PortScanner</text>
<text text-anchor="middle" x="361.5" y="-7" font-family="Helvetica,sans-Serif" font-size="10.00">::useNonBlockingMode</text>
</a>
</g>
</g>
<!-- Node1&#45;&gt;Node17 -->
<g id="edge17_Node000001_Node000017" class="edge">
<title>Node1&#45;&gt;Node17</title>
<g id="a_edge17_Node000001_Node000017"><a xlink:title=" ">
<path fill="none" stroke="#63b8ff" d="M117.8,-191.83C136.91,-158.45 187.43,-78.46 253,-39 255.87,-37.27 258.84,-35.67 261.9,-34.19"/>
<polygon fill="#63b8ff" stroke="#63b8ff" points="263.55,-37.29 271.3,-30.06 260.74,-30.88 263.55,-37.29"/>
</a>
</g>
</g>
<!-- Node3 -->
<g id="Node000003" class="node">
<title>Node3</title>
<g id="a_Node000003"><a xlink:href="../../dc/db6/classOmegaL4Scanner_1_1Scanning_1_1PortScanner.html#a9db90b576dc181cd5d21531c1832ecea" target="_top" xlink:title="Determines the status of a port based on the received packet.">
<polygon fill="white" stroke="#666666" points="723,-644 506,-644 506,-614 723,-614 723,-644"/>
<text text-anchor="start" x="514" y="-632" font-family="Helvetica,sans-Serif" font-size="10.00">OmegaL4Scanner::Scanning::PortScanner</text>
<text text-anchor="middle" x="614.5" y="-621" font-family="Helvetica,sans-Serif" font-size="10.00">::determinePortStatus</text>
</a>
</g>
</g>
<!-- Node2&#45;&gt;Node3 -->
<g id="edge2_Node000002_Node000003" class="edge">
<title>Node2&#45;&gt;Node3</title>
<g id="a_edge2_Node000002_Node000003"><a xlink:title=" ">
<path fill="none" stroke="#63b8ff" d="M387.84,-548.12C415.87,-564.27 462.81,-589.61 506,-605 512.29,-607.24 518.87,-609.32 525.54,-611.24"/>
<polygon fill="#63b8ff" stroke="#63b8ff" points="524.78,-614.66 535.35,-613.93 526.63,-607.91 524.78,-614.66"/>
</a>
</g>
</g>
<!-- Node4 -->
<g id="Node000004" class="node">
<title>Node4</title>
<g id="a_Node000004"><a xlink:href="../../dc/db6/classOmegaL4Scanner_1_1Scanning_1_1PortScanner.html#a94b0f198bfe6ae64e4feabb53a1fd312" target="_top" xlink:title="Initializes the file descriptor set for the select() call.">
<polygon fill="white" stroke="#666666" points="723,-596 506,-596 506,-566 723,-566 723,-596"/>
<text text-anchor="start" x="514" y="-584" font-family="Helvetica,sans-Serif" font-size="10.00">OmegaL4Scanner::Scanning::PortScanner</text>
<text text-anchor="middle" x="614.5" y="-573" font-family="Helvetica,sans-Serif" font-size="10.00">::initializeFdSet</text>
</a>
</g>
</g>
<!-- Node2&#45;&gt;Node4 -->
<g id="edge3_Node000002_Node000004" class="edge">
<title>Node2&#45;&gt;Node4</title>
<g id="a_edge3_Node000002_Node000004"><a xlink:title=" ">
<path fill="none" stroke="#63b8ff" d="M441.23,-548.06C467.86,-553.15 497.78,-558.87 525.11,-564.1"/>
<polygon fill="#63b8ff" stroke="#63b8ff" points="524.57,-567.56 535.05,-566 525.89,-560.68 524.57,-567.56"/>
</a>
</g>
</g>
<!-- Node5 -->
<g id="Node000005" class="node">
<title>Node5</title>
<g id="a_Node000005"><a xlink:href="../../dc/db6/classOmegaL4Scanner_1_1Scanning_1_1PortScanner.html#a7be2e3149e02495c97972fb6ab01b6cc" target="_top" xlink:title="Calls the select() function to monitor the raw socket for readability.">
<polygon fill="white" stroke="#666666" points="723,-548 506,-548 506,-518 723,-518 723,-548"/>
<text text-anchor="start" x="514" y="-536" font-family="Helvetica,sans-Serif" font-size="10.00">OmegaL4Scanner::Scanning::PortScanner</text>
<text text-anchor="middle" x="614.5" y="-525" font-family="Helvetica,sans-Serif" font-size="10.00">::selectSocket</text>
</a>
</g>
</g>
<!-- Node2&#45;&gt;Node5 -->
<g id="edge4_Node000002_Node000005" class="edge">
<title>Node2&#45;&gt;Node5</title>
<g id="a_edge4_Node000002_Node000005"><a xlink:title=" ">
<path fill="none" stroke="#63b8ff" d="M470.04,-533C478.55,-533 487.17,-533 495.75,-533"/>
<polygon fill="#63b8ff" stroke="#63b8ff" points="495.79,-536.5 505.79,-533 495.79,-529.5 495.79,-536.5"/>
</a>
</g>
</g>
<!-- Node6 -->
<g id="Node000006" class="node">
<title>Node6</title>
<g id="a_Node000006"><a xlink:href="../../dc/db6/classOmegaL4Scanner_1_1Scanning_1_1PortScanner.html#aab3b58c5f57825cac4c606a88d77d054" target="_top" xlink:title="Sets the timeval structure for the select() call.">
<polygon fill="white" stroke="#666666" points="723,-500 506,-500 506,-470 723,-470 723,-500"/>
<text text-anchor="start" x="514" y="-488" font-family="Helvetica,sans-Serif" font-size="10.00">OmegaL4Scanner::Scanning::PortScanner</text>
<text text-anchor="middle" x="614.5" y="-477" font-family="Helvetica,sans-Serif" font-size="10.00">::setTimeval</text>
</a>
</g>
</g>
<!-- Node2&#45;&gt;Node6 -->
<g id="edge5_Node000002_Node000006" class="edge">
<title>Node2&#45;&gt;Node6</title>
<g id="a_edge5_Node000002_Node000006"><a xlink:title=" ">
<path fill="none" stroke="#63b8ff" d="M441.23,-517.94C467.86,-512.85 497.78,-507.13 525.11,-501.9"/>
<polygon fill="#63b8ff" stroke="#63b8ff" points="525.89,-505.32 535.05,-500 524.57,-498.44 525.89,-505.32"/>
</a>
</g>
</g>
<!-- Node8 -->
<g id="Node000008" class="node">
<title>Node8</title>
<g id="a_Node000008"><a xlink:href="../../dc/db6/classOmegaL4Scanner_1_1Scanning_1_1PortScanner.html#a1b05bb62564d49362ab3f26949f9a319" target="_top" xlink:title="Builds the IPv4 header using libnet.">
<polygon fill="white" stroke="#666666" points="723,-452 506,-452 506,-422 723,-422 723,-452"/>
<text text-anchor="start" x="514" y="-440" font-family="Helvetica,sans-Serif" font-size="10.00">OmegaL4Scanner::Scanning::PortScanner</text>
<text text-anchor="middle" x="614.5" y="-429" font-family="Helvetica,sans-Serif" font-size="10.00">::createIpv4Header</text>
</a>
</g>
</g>
<!-- Node7&#45;&gt;Node8 -->
<g id="edge7_Node000007_Node000008" class="edge">
<title>Node7&#45;&gt;Node8</title>
<g id="a_edge7_Node000007_Node000008"><a xlink:title=" ">
<path fill="none" stroke="#63b8ff" d="M403.6,-380C432.1,-390.1 471.07,-403.29 506,-413 514.23,-415.29 522.87,-417.51 531.51,-419.62"/>
<polygon fill="#63b8ff" stroke="#63b8ff" points="530.71,-423.03 541.25,-421.95 532.34,-416.22 530.71,-423.03"/>
</a>
</g>
</g>
<!-- Node10 -->
<g id="Node000010" class="node">
<title>Node10</title>
<g id="a_Node000010"><a xlink:href="../../dc/db6/classOmegaL4Scanner_1_1Scanning_1_1PortScanner.html#aa7e834c731b199145c8ce1196b783099" target="_top" xlink:title="Builds the IPv6 header using libnet.">
<polygon fill="white" stroke="#666666" points="723,-404 506,-404 506,-374 723,-374 723,-404"/>
<text text-anchor="start" x="514" y="-392" font-family="Helvetica,sans-Serif" font-size="10.00">OmegaL4Scanner::Scanning::PortScanner</text>
<text text-anchor="middle" x="614.5" y="-381" font-family="Helvetica,sans-Serif" font-size="10.00">::createIpv6Header</text>
</a>
</g>
</g>
<!-- Node7&#45;&gt;Node10 -->
<g id="edge9_Node000007_Node000010" class="edge">
<title>Node7&#45;&gt;Node10</title>
<g id="a_edge9_Node000007_Node000010"><a xlink:title=" ">
<path fill="none" stroke="#63b8ff" d="M470.04,-375.28C478.55,-376.1 487.17,-376.92 495.75,-377.74"/>
<polygon fill="#63b8ff" stroke="#63b8ff" points="495.5,-381.23 505.79,-378.7 496.16,-374.26 495.5,-381.23"/>
</a>
</g>
</g>
<!-- Node11 -->
<g id="Node000011" class="node">
<title>Node11</title>
<g id="a_Node000011"><a xlink:href="../../dc/db6/classOmegaL4Scanner_1_1Scanning_1_1PortScanner.html#a5e4066483e8d39142c395ff6abcc81c9" target="_top" xlink:title="Retrieves the source address from the network interface information.">
<polygon fill="white" stroke="#666666" points="723,-356 506,-356 506,-326 723,-326 723,-356"/>
<text text-anchor="start" x="514" y="-344" font-family="Helvetica,sans-Serif" font-size="10.00">OmegaL4Scanner::Scanning::PortScanner</text>
<text text-anchor="middle" x="614.5" y="-333" font-family="Helvetica,sans-Serif" font-size="10.00">::getSourceAddress</text>
</a>
</g>
</g>
<!-- Node7&#45;&gt;Node11 -->
<g id="edge10_Node000007_Node000011" class="edge">
<title>Node7&#45;&gt;Node11</title>
<g id="a_edge10_Node000007_Node000011"><a xlink:title=" ">
<path fill="none" stroke="#63b8ff" d="M470.04,-354.72C478.55,-353.9 487.17,-353.08 495.75,-352.26"/>
<polygon fill="#63b8ff" stroke="#63b8ff" points="496.16,-355.74 505.79,-351.3 495.5,-348.77 496.16,-355.74"/>
</a>
</g>
</g>
<!-- Node8&#45;&gt;Node9 -->
<g id="edge8_Node000008_Node000009" class="edge">
<title>Node8&#45;&gt;Node9</title>
<g id="a_edge8_Node000008_Node000009"><a xlink:title=" ">
<path fill="none" stroke="#63b8ff" d="M685.61,-421.98C698.1,-419.12 710.95,-416.07 723,-413 756.56,-404.45 793.76,-393.86 823.89,-385"/>
<polygon fill="#63b8ff" stroke="#63b8ff" points="825.22,-388.25 833.82,-382.06 823.24,-381.54 825.22,-388.25"/>
</a>
</g>
</g>
</g>
</svg>
